<svg t="1716986522997" class="icon" viewBox="0 0 1024 1024" version="1.1" xmlns="http://www.w3.org/2000/svg" p-id="1506" width="128" height="128"><path d="M566.831291 11.684567a418.105902 418.105902 0 0 0-252.284523 17.762275C248.374765 56.60205 206.829104 118.378642 209.418181 185.3936c2.769711 83.151534 77.672323 148.540792 167.386868 146.072137 9.392932 0 18.725653-0.602111 27.998163-1.926755-38.715739-17.46122-64.064614-52.985771-66.232214-92.845522-4.094355-48.951627 31.791463-92.965944 83.693434-102.659931a279.37952 279.37952 0 0 1 142.339048 8.068288c97.722621 26.793941 174.190722 97.66241 203.152263 188.28012 38.113628 141.496093 15.414042 291.060474-63.221658 417.262947q-133.66865 195.083975-464.046974 258.305634c335.556479-78.695912 485.722971-263.784844 515.286623-503.244403 19.689031-317.673782-292.806596-392.636605-341.637801-196.047353a125.841206 125.841206 0 0 1 138.124271-9.995043c78.756123 59.608992 111.691597 157.090769 83.693434 247.70848-23.361908 144.687282-108.681042 274.562632-236.629637 360.18282A1428.207373 1428.207373 0 0 1 30.109515 1023.231104h358.918388c-7.827443 0.5419-6.864066 0.421478 8.248921 0h-4.877099a1019.795459 1019.795459 0 0 0 226.273326-34.139695c224.527205-72.072691 375.054963-268.180255 374.814119-488.432471 1.986966-236.569425-176.719589-441.347388-426.655879-488.91416zM207.551637 917.500407a1364.082548 1364.082548 0 0 1-173.889667 87.3061c77.672323-7.64681 153.779158-25.348875 226.092694-52.624505 73.036068-26.553097 134.872872-74.420924 176.117477-136.317938 38.715739-54.491049 75.685357-221.877916-61.294903-301.898473-79.779712-46.482972-190.628353-47.386138-236.388792 8.911244a103.563098 103.563098 0 0 0-12.162643 125.54015c9.693988-30.767874 36.126662-54.611471 69.664247-62.739969 35.042862-3.130977 70.025513 6.02111 98.26452 25.529507 41.545661 34.92244 56.116748 89.714544 36.728774 138.605961-18.00312 67.737491-61.65617 127.286273-123.131707 167.627711z" p-id="1507" fill="#1296db"></path></svg>